<svg width="331" height="331" viewBox="0 0 331 331" fill="none" xmlns="http://www.w3.org/2000/svg">
<g clip-path="url(#clip0_7_46)">
<path d="M9.20171 221.093L7.81013 215.952L22.8052 204.195L3.91934 201.61L2.55615 196.498L25.276 190.336L26.4972 194.851L11.6725 198.884L28.116 200.9L29.0532 204.337L15.8757 214.419L30.7004 210.414L31.9216 214.93L9.20171 221.093Z" fill="black"/>
<path d="M19.113 160.999L19.255 170.314L23.799 171.762V176.704L0.0283203 168.667V163.214L23.515 154.41V159.38L19.113 160.999ZM5.53788 165.883L15.4494 169.093V162.333L5.53788 165.883Z" fill="black"/>
<path d="M2.72656 135.978L3.52175 131.434L26.6676 135.95L25.7588 140.551L2.72656 135.978Z" fill="black"/>
<path d="M16.3583 93.1514L38.1978 102.183L36.4086 106.499L17.3807 110.134L32.3474 116.326L30.5582 120.642L8.71875 111.554L10.5079 107.238L29.5642 103.631L14.5691 97.3546L16.3583 93.1514Z" fill="black"/>
<path d="M26.0142 76.1968L36.0109 62.2524L39.1349 64.4676L35.4997 69.5512L51.574 81.0815L48.734 84.8871L32.6597 73.3568L29.0813 78.412L26.0142 76.1968Z" fill="black"/>
<path d="M61.5993 41.6057L55.0674 47.5981L59.0434 51.9148L64.7233 46.604L67.2509 49.444L61.571 54.7548L65.8025 59.384L72.3345 53.3632L74.9473 56.2032L64.9221 65.348L48.9614 47.9104L58.9866 38.7373L61.5993 41.6057Z" fill="black"/>
<path d="M92.6404 16.6991L104.313 37.2322L100.223 39.5326L83.0412 30.7002L91.0216 44.9001L86.9604 47.2289L75.2881 26.6958L79.3493 24.3671L96.588 33.2562L88.5792 19.0563L92.6404 16.6991Z" fill="black"/>
<path d="M130.951 23.3163L121.977 25.7871L121.665 30.5299L116.922 31.8362L118.768 6.84438L124.022 5.396L138.392 25.9291L133.621 27.2355L130.951 23.3163ZM122.801 11.3884L122.176 21.8111L128.679 20.0219L122.801 11.3884Z" fill="black"/>
<path d="M171.393 0L171.961 23.6287H167.275L156.256 7.66794L156.653 23.8559H151.967L151.399 0.227193H156.085L167.105 16.2163L166.707 0H171.393Z" fill="black"/>
<path d="M202.831 4.17472C205.209 4.59971 207.379 5.79981 209.002 7.58771C210.626 9.37561 211.611 11.6507 211.806 14.0579L206.552 12.8651C206.31 11.7203 205.733 10.6737 204.893 9.85918C204.053 9.04464 202.989 8.49921 201.837 8.2927C199.926 8.09262 198.008 8.59897 196.445 9.7162C194.881 10.8334 193.781 12.4843 193.351 14.3572C192.921 16.2301 193.192 18.1956 194.112 19.8827C195.032 21.5698 196.537 22.8618 198.344 23.515C199.474 23.8323 200.672 23.8044 201.786 23.435C202.899 23.0655 203.877 22.3713 204.592 21.4418L209.846 22.663C208.607 24.743 206.717 26.3568 204.469 27.2551C202.22 28.1535 199.739 28.2862 197.407 27.633C194.357 26.8566 191.731 24.9166 190.094 22.2284C188.456 19.5401 187.936 16.3175 188.645 13.2506C189.354 10.1837 191.236 7.51648 193.888 5.8201C196.539 4.12372 199.75 3.53309 202.831 4.17472V4.17472Z" fill="black"/>
<path d="M242.819 23.515L234.867 19.5958L232.254 24.9066L239.24 28.4566L237.565 31.8362L230.72 28.3714L227.88 34.0513L235.861 37.9705L234.157 41.4353L221.973 35.4429L232.396 14.2283L244.579 20.2206L242.819 23.515Z" fill="black"/>
<path d="M271.076 54.7548C271.731 54.0981 272.566 53.6504 273.475 53.4685C274.385 53.2866 275.328 53.3785 276.185 53.7328C277.042 54.0871 277.774 54.6877 278.29 55.4586C278.805 56.2295 279.081 57.136 279.081 58.0634C279.081 58.9908 278.805 59.8973 278.29 60.6682C277.774 61.4391 277.042 62.0397 276.185 62.394C275.328 62.7483 274.385 62.8403 273.475 62.6583C272.566 62.4764 271.731 62.0287 271.076 61.372C270.639 60.939 270.292 60.4236 270.055 59.8557C269.819 59.2878 269.697 58.6787 269.697 58.0634C269.697 57.4482 269.819 56.839 270.055 56.2711C270.292 55.7032 270.639 55.1879 271.076 54.7548V54.7548Z" fill="black"/>
<path d="M309.956 112.691C308.511 113.409 306.93 113.812 305.317 113.871C303.704 113.931 302.098 113.646 300.604 113.036C299.11 112.426 297.763 111.505 296.653 110.334C295.543 109.163 294.695 107.768 294.166 106.244L290.843 98.803L312.37 89.1471L315.693 96.5879C316.482 98.0009 316.96 99.5664 317.095 101.179C317.231 102.792 317.02 104.416 316.476 105.94C315.933 107.465 315.07 108.856 313.946 110.02C312.821 111.184 311.461 112.095 309.956 112.691V112.691ZM297.772 104.455C298.103 105.448 298.651 106.355 299.376 107.109C300.102 107.864 300.986 108.448 301.966 108.818C302.945 109.188 303.994 109.335 305.037 109.248C306.081 109.161 307.091 108.843 307.996 108.317C308.996 107.99 309.911 107.445 310.676 106.722C311.44 105.999 312.035 105.116 312.418 104.136C312.801 103.156 312.962 102.103 312.89 101.053C312.818 100.004 312.514 98.9831 312.001 98.0646L310.637 95.0543L296.438 101.416L297.772 104.455Z" fill="black"/>
<path d="M325.15 140.664L323.417 131.974L317.737 133.138L319.271 140.835L315.607 141.573L314.074 133.848L307.939 135.07L309.672 143.788L305.895 144.527L303.225 131.236L326.399 126.635L329.069 139.926L325.15 140.664Z" fill="black"/>
<path d="M306.86 167.729C306.86 162.873 309.558 159.209 314.017 159.209V164.236C313.572 164.239 313.132 164.333 312.725 164.513C312.318 164.693 311.952 164.956 311.651 165.283C311.35 165.611 311.12 165.998 310.975 166.419C310.829 166.839 310.773 167.286 310.808 167.729C310.808 169.945 311.944 171.279 313.648 171.308C318.731 171.308 315.863 159.266 324.411 159.437C328.671 159.437 331.199 162.987 331.114 167.786C331.029 172.586 328.501 175.823 324.241 176.051V170.91C325.05 170.838 325.798 170.453 326.328 169.838C326.859 169.224 327.128 168.426 327.081 167.616C327.081 165.77 326.286 164.378 324.241 164.35C319.498 164.35 321.941 176.306 313.619 176.164C310.041 176.079 306.747 173.069 306.86 167.729Z" fill="black"/>
<path d="M327.933 195.817L327.024 200.418L303.878 195.788L304.815 191.188L327.933 195.817Z" fill="black"/>
<path d="M306.832 237.337L308.933 232.367C310.038 232.256 311.088 231.834 311.962 231.15C312.837 230.467 313.5 229.55 313.875 228.505C314.54 226.626 314.457 224.563 313.641 222.744C312.825 220.925 311.341 219.49 309.495 218.737C307.649 217.985 305.585 217.972 303.729 218.701C301.874 219.43 300.371 220.846 299.533 222.655C298.844 224.085 298.712 225.722 299.164 227.244C299.615 228.767 300.617 230.067 301.975 230.891L305.099 223.478L308.422 224.898L303.48 236.542L299.703 234.952C297.455 233.449 295.816 231.193 295.082 228.59C294.348 225.987 294.567 223.208 295.699 220.752C296.98 217.868 299.342 215.603 302.276 214.443C305.211 213.283 308.483 213.322 311.39 214.55C314.296 215.778 316.604 218.098 317.818 221.01C319.032 223.923 319.054 227.195 317.879 230.124C317.103 232.384 315.596 234.321 313.594 235.628C311.593 236.935 309.213 237.536 306.832 237.337V237.337Z" fill="black"/>
<path d="M290.843 273.661L272.042 259.234L274.882 255.513L294.194 256.905L281.329 247.079L284.169 243.358L302.941 257.7L300.101 261.42L280.761 260L293.654 269.855L290.843 273.661Z" fill="black"/>
<path d="M250.742 292.575C251.232 293.362 251.478 294.277 251.448 295.204C251.418 296.13 251.114 297.027 250.574 297.781C250.034 298.535 249.283 299.112 248.415 299.438C247.547 299.765 246.602 299.826 245.699 299.616C244.796 299.405 243.976 298.931 243.343 298.254C242.709 297.577 242.291 296.727 242.141 295.812C241.99 294.897 242.115 293.958 242.498 293.114C242.882 292.27 243.507 291.558 244.295 291.07C244.815 290.738 245.397 290.514 246.004 290.411C246.612 290.307 247.235 290.326 247.835 290.466C248.436 290.606 249.003 290.865 249.502 291.227C250.001 291.589 250.423 292.048 250.742 292.575V292.575Z" fill="black"/>
<path d="M193.63 304.418L203.485 302.316L208.426 325.377L198.969 327.422C194.198 328.444 191.017 326.484 190.279 323.048C189.99 321.859 190.114 320.607 190.63 319.498C191.146 318.388 192.023 317.487 193.119 316.942C191.774 316.964 190.465 316.508 189.425 315.655C188.385 314.802 187.681 313.608 187.439 312.284C186.644 308.621 188.887 305.44 193.63 304.418ZM196.47 314.244L201.014 313.278L199.679 307.059L195.05 308.053C192.835 308.536 191.756 309.899 192.21 311.859C192.295 312.335 192.486 312.786 192.77 313.178C193.054 313.57 193.422 313.893 193.848 314.123C194.275 314.352 194.747 314.482 195.231 314.503C195.714 314.524 196.196 314.436 196.641 314.244H196.47ZM198.799 323.531L203.002 322.65L201.753 316.97L197.578 317.851C195.419 318.334 194.369 319.583 194.738 321.458C195.107 323.332 196.641 323.985 198.827 323.531H198.799Z" fill="black"/>
<path d="M171.223 330.972H166.537L166.849 316.374C166.879 315.116 166.409 313.898 165.54 312.987C164.672 312.076 163.478 311.548 162.22 311.518C160.962 311.488 159.744 311.958 158.833 312.826C157.922 313.695 157.394 314.889 157.364 316.147L157.051 330.744H152.337L152.649 316.175C152.615 314.917 152.849 313.666 153.335 312.505C153.822 311.345 154.551 310.301 155.472 309.444C156.394 308.587 157.488 307.936 158.681 307.534C159.873 307.133 161.138 306.99 162.39 307.116C163.638 307.041 164.887 307.236 166.052 307.689C167.217 308.143 168.269 308.842 169.138 309.741C170.007 310.639 170.671 311.715 171.085 312.894C171.499 314.074 171.652 315.329 171.535 316.573L171.223 330.972Z" fill="black"/>
<path d="M132.372 327.535L127.799 326.541L132.826 303.481L137.398 304.475L132.372 327.535Z" fill="black"/>
<path d="M104.228 319.129L111.668 300.726L104.512 297.886L105.932 294.393L117.291 299.022L108.601 320.861L104.228 319.129Z" fill="black"/>
<path d="M70.0056 286.213C70.8552 284.842 71.987 283.668 73.3258 282.768C74.6647 281.868 76.1798 281.264 77.7703 280.995C79.3609 280.726 80.9904 280.799 82.5505 281.21C84.1106 281.62 85.5655 282.357 86.8183 283.373L93.5775 288.003L80.2011 307.513L73.442 302.884C72.0459 302.083 70.8359 300.995 69.8921 299.692C68.9483 298.388 68.2922 296.899 67.9673 295.323C67.6424 293.747 67.6561 292.12 68.0075 290.549C68.3589 288.979 69.04 287.501 70.0056 286.213ZM84.6883 286.895C83.8897 286.216 82.949 285.724 81.9354 285.457C80.9218 285.189 79.8611 285.152 78.8313 285.348C77.8014 285.544 76.8287 285.968 75.9845 286.59C75.1403 287.212 74.4462 288.015 73.9532 288.94C73.2699 289.74 72.7731 290.683 72.4987 291.699C72.2244 292.715 72.1794 293.779 72.3669 294.815C72.5545 295.85 72.9699 296.831 73.5831 297.687C74.1964 298.542 74.9921 299.25 75.9128 299.76L78.7527 301.606L87.5283 288.741L84.6883 286.895Z" fill="black"/>
<path d="M43.2812 257.643C42.7871 258.013 42.2236 258.28 41.6242 258.428C41.0249 258.576 40.4019 258.601 39.7924 258.503C39.1829 258.405 38.5994 258.185 38.0766 257.857C37.5538 257.529 37.1024 257.099 36.7493 256.592C36.3424 256.092 36.0426 255.514 35.8682 254.893C35.6937 254.272 35.6485 253.623 35.7352 252.984C35.822 252.345 36.0388 251.73 36.3724 251.179C36.706 250.627 37.1492 250.149 37.6747 249.776C38.2001 249.402 38.7966 249.14 39.4273 249.006C40.058 248.872 40.7094 248.869 41.3414 248.997C41.9734 249.125 42.5724 249.381 43.1014 249.749C43.6305 250.118 44.0783 250.591 44.4172 251.14C44.7786 251.638 45.0362 252.204 45.1749 252.804C45.3135 253.404 45.3304 254.025 45.2244 254.632C45.1185 255.238 44.8919 255.817 44.5582 256.334C44.2244 256.852 43.7901 257.297 43.2812 257.643Z" fill="black"/>
</g>
<defs>
<clipPath id="clip0_7_46">
<rect width="331" height="331" fill="white"/>
</clipPath>
</defs>
</svg>
